# xmcd
#
# Track frame offsets:
# 150
# 22405
# 41824
# 59410
# 79029
# 102989
# 128012
# 148910
# 173549
# 190944
# 206880
#
# Disc length: 3067 seconds
#
# Revision: 0
# Processed by: cddbd v1.5PL3 Copyright (c) Steve Scherf et al.
# Submitted via: Axialis_AX_CDPlayer 2.6
#
DISCID=a30bf90b
DTITLE=Van Orly - Somebody Hold Me
DYEAR=1900
DGENRE=
TTITLE0=Calling Out
TTITLE1=I Breath In
TTITLE2=Thank You
TTITLE3=Walking Through This Fire
TTITLE4=Wisdom
TTITLE5=Love Can Make You Bleed
TTITLE6=Waterfall Of Gold
TTITLE7=Somebody Hold Me
TTITLE8=I Do Love You (Do Do)
TTITLE9=So Alone
TTITLE10=Did Somebody (Make A Fool Out Of You)
EXTD=
EXTT0=
EXTT1=
EXTT2=
EXTT3=
EXTT4=
EXTT5=
EXTT6=
EXTT7=
EXTT8=
EXTT9=
EXTT10=
PLAYORDER=
